<svg width="70" height="70" viewBox="0 0 70 70" fill="none" xmlns="http://www.w3.org/2000/svg" xmlns:xlink="http://www.w3.org/1999/xlink">
<circle cx="35" cy="35" r="35" fill="#F6C47C"/>
<circle cx="35" cy="35" r="35" fill="url(#pattern0_29_550)" style="mix-blend-mode:plus-lighter"/>
<defs>
<pattern id="pattern0_29_550" patternUnits="userSpaceOnUse" patternTransform="matrix(61.44 0 0 61.44 11 11)" preserveAspectRatio="none" viewBox="0 0 61.44 61.44" width="1" height="1">
<g id="pattern0_29_550_inner">
<path d="M42 23.0001C42.0069 25.6398 41.3901 28.2438 40.2 30.6001C38.7889 33.4235 36.6195 35.7984 33.9349 37.4586C31.2503 39.1188 28.1565 39.9988 25 40.0001C22.3603 40.0069 19.7562 39.3902 17.4 38.2001L6 42.0001L9.8 30.6001C8.60986 28.2438 7.99312 25.6398 8 23.0001C8.00122 19.8436 8.88122 16.7498 10.5414 14.0652C12.2017 11.3806 14.5765 9.21119 17.4 7.80006C19.7562 6.60992 22.3603 5.99317 25 6.00006H26C30.1687 6.23004 34.1061 7.98958 37.0583 10.9418C40.0105 13.894 41.77 17.8314 42 22.0001V23.0001Z" stroke="#F6C47C" stroke-width="4" stroke-linecap="round" stroke-linejoin="round"/>
</g>
</pattern></defs>
</svg>
