<svg width="24" height="22" viewBox="0 0 24 22" fill="none" xmlns="http://www.w3.org/2000/svg">
<path fill-rule="evenodd" clip-rule="evenodd" d="M7.20801 0H15.8576C19.8379 0 23.0656 3.07862 23.0656 6.875V15.125C23.0656 18.9214 19.8379 22 15.8576 22H7.20801C3.22775 22 0 18.9214 0 15.125V6.875C0 3.07862 3.22775 0 7.20801 0ZM15.8577 19.9375C18.64 19.9375 20.9033 17.7787 20.9033 15.125V6.875C20.9033 4.22125 18.64 2.0625 15.8577 2.0625H7.20808C4.42579 2.0625 2.16247 4.22125 2.16247 6.875V15.125C2.16247 17.7787 4.42579 19.9375 7.20808 19.9375H15.8577Z" fill="#F6C47C"/>
<path fill-rule="evenodd" clip-rule="evenodd" d="M5.76648 11C5.76648 7.96263 8.34839 5.5 11.5329 5.5C14.7174 5.5 17.2993 7.96263 17.2993 11C17.2993 14.0374 14.7174 16.5 11.5329 16.5C8.34839 16.5 5.76648 14.0374 5.76648 11ZM7.92879 11C7.92879 12.8948 9.54626 14.4375 11.5328 14.4375C13.5193 14.4375 15.1368 12.8948 15.1368 11C15.1368 9.10388 13.5193 7.5625 11.5328 7.5625C9.54626 7.5625 7.92879 9.10388 7.92879 11Z" fill="#F6C47C"/>
<ellipse cx="17.7316" cy="5.08749" rx="0.768374" ry="0.732875" fill="#F6C47C"/>
</svg>
