<svg width="37" height="37" viewBox="0 0 37 37" fill="none" xmlns="http://www.w3.org/2000/svg">
<g clip-path="url(#clip0_172_164)">
<path d="M32.3772 15.4177C32.3772 26.2101 18.5012 35.4607 18.5012 35.4607C18.5012 35.4607 4.62531 26.2101 4.62531 15.4177C4.62531 11.7376 6.08723 8.20819 8.68947 5.60594C11.2917 3.0037 14.8211 1.54178 18.5012 1.54178C22.1814 1.54178 25.7108 3.0037 28.313 5.60594C30.9152 8.20819 32.3772 11.7376 32.3772 15.4177Z" stroke="#F5E1BF" stroke-width="3.70025" stroke-linecap="round" stroke-linejoin="round"/>
<path d="M18.5012 20.043C21.0557 20.043 23.1266 17.9722 23.1266 15.4177C23.1266 12.8632 21.0557 10.7924 18.5012 10.7924C15.9468 10.7924 13.8759 12.8632 13.8759 15.4177C13.8759 17.9722 15.9468 20.043 18.5012 20.043Z" stroke="#F5E1BF" stroke-width="3.70025" stroke-linecap="round" stroke-linejoin="round"/>
</g>
<defs>
<clipPath id="clip0_172_164">
<rect width="37.0025" height="37.0025" fill="white"/>
</clipPath>
</defs>
</svg>
