<svg width="37" height="37" viewBox="0 0 37 37" fill="none" xmlns="http://www.w3.org/2000/svg">
<g clip-path="url(#clip0_172_174)">
<path d="M26.2101 32.3772V29.2936C26.2101 27.658 25.5603 26.0894 24.4038 24.9328C23.2472 23.7763 21.6786 23.1266 20.043 23.1266H7.70883C6.07322 23.1266 4.5046 23.7763 3.34804 24.9328C2.19149 26.0894 1.54175 27.658 1.54175 29.2936V32.3772M35.4607 32.3772V29.2936C35.4597 27.9272 35.0049 26.5998 34.1677 25.5199C33.3305 24.4399 32.1584 23.6686 30.8354 23.327M24.6683 4.82574C25.9949 5.16539 27.1707 5.93689 28.0103 7.01861C28.85 8.10033 29.3057 9.43074 29.3057 10.8001C29.3057 12.1695 28.85 13.4999 28.0103 14.5816C27.1707 15.6633 25.9949 16.4348 24.6683 16.7745M20.043 10.7924C20.043 14.1984 17.2819 16.9595 13.8759 16.9595C10.4699 16.9595 7.70883 14.1984 7.70883 10.7924C7.70883 7.3864 10.4699 4.62531 13.8759 4.62531C17.2819 4.62531 20.043 7.3864 20.043 10.7924Z" stroke="#F5E1BF" stroke-width="3.70025" stroke-linecap="round" stroke-linejoin="round"/>
</g>
<defs>
<clipPath id="clip0_172_174">
<rect width="37.0025" height="37.0025" fill="white"/>
</clipPath>
</defs>
</svg>
