<svg width="24" height="18" viewBox="0 0 24 18" fill="none" xmlns="http://www.w3.org/2000/svg">
<path d="M23.0656 2.11613C22.2079 2.475 21.2939 2.71288 20.341 2.82838C21.3213 2.27013 22.0695 1.39287 22.4212 0.3355C21.5073 0.85525 20.4981 1.22238 19.4227 1.42725C18.5549 0.545875 17.318 0 15.9686 0C13.3507 0 11.2431 2.02675 11.2431 4.51137C11.2431 4.86888 11.2748 5.21263 11.3526 5.53988C7.42137 5.357 3.94278 3.55988 1.60594 0.82225C1.19797 1.49738 0.958665 2.27012 0.958665 3.102C0.958665 4.664 1.802 6.04862 3.05908 6.85025C2.29935 6.8365 1.55405 6.62613 0.922625 6.29475C0.922625 6.3085 0.922625 6.32638 0.922625 6.34425C0.922625 8.536 2.56173 10.3565 4.71115 10.7759C4.32625 10.8763 3.90674 10.9244 3.47138 10.9244C3.16864 10.9244 2.86302 10.9079 2.57614 10.8474C3.18882 12.6335 4.92739 13.9466 6.99465 13.9893C5.38582 15.1896 3.34307 15.9129 1.13166 15.9129C0.743867 15.9129 0.371933 15.8964 0 15.851C2.09465 17.1394 4.57709 17.875 7.25414 17.875C15.9556 17.875 20.7129 11 20.7129 5.04075C20.7129 4.84137 20.7057 4.64887 20.6956 4.45775C21.6341 3.8225 22.4227 3.02913 23.0656 2.11613Z" fill="#F6C47C"/>
</svg>
