<svg width="65" height="19" viewBox="0 0 65 19" fill="none" xmlns="http://www.w3.org/2000/svg">
<path d="M8.4 1.296C8.064 1.296 7.792 1.288 7.584 1.272L6.24 1.248C4.768 1.248 4.032 1.424 4.032 1.776C4.128 1.776 4.216 1.84 4.296 1.968C4.392 2.096 4.44 2.288 4.44 2.544C4.44 3.024 4.288 3.376 3.984 3.6C3.696 3.808 3.376 3.912 3.024 3.912C2.592 3.912 2.28 3.776 2.088 3.504C1.896 3.216 1.8 2.88 1.8 2.496C1.8 1.84 2.064 1.264 2.592 0.767999C3.12 0.255999 3.84 -1.43051e-06 4.752 -1.43051e-06H12.984L4.704 16.44C5.152 16.44 5.496 16.448 5.736 16.464L7.008 16.488C7.68 16.488 8.224 16.456 8.64 16.392C9.072 16.312 9.36 16.168 9.504 15.96C9.392 15.96 9.288 15.904 9.192 15.792C9.112 15.664 9.072 15.472 9.072 15.216C9.072 14.736 9.216 14.384 9.504 14.16C9.792 13.936 10.128 13.824 10.512 13.824C10.928 13.824 11.232 13.96 11.424 14.232C11.632 14.504 11.736 14.832 11.736 15.216C11.736 15.632 11.608 16.056 11.352 16.488C11.096 16.92 10.728 17.28 10.248 17.568C9.784 17.856 9.256 18 8.664 18H8.19564e-08L8.4 1.296ZM16.1758 18.144C14.9918 18.144 14.0718 17.84 13.4158 17.232C12.7598 16.608 12.4318 15.64 12.4318 14.328C12.4318 13.224 12.6478 12.008 13.0798 10.68C13.5118 9.352 14.2158 8.208 15.1918 7.248C16.1678 6.272 17.4078 5.784 18.9118 5.784C20.6718 5.784 21.5518 6.552 21.5518 8.088C21.5518 8.984 21.2958 9.808 20.7838 10.56C20.2718 11.312 19.5918 11.92 18.7438 12.384C17.8958 12.832 16.9918 13.088 16.0318 13.152C15.9998 13.632 15.9838 13.952 15.9838 14.112C15.9838 14.896 16.1198 15.432 16.3918 15.72C16.6638 15.992 17.1038 16.128 17.7118 16.128C18.5758 16.128 19.3118 15.928 19.9198 15.528C20.5438 15.128 21.2238 14.52 21.9598 13.704H22.7758C20.9998 16.664 18.7998 18.144 16.1758 18.144ZM16.2238 12C16.8158 11.968 17.3758 11.76 17.9038 11.376C18.4478 10.992 18.8798 10.504 19.1998 9.912C19.5358 9.32 19.7038 8.696 19.7038 8.04C19.7038 7.384 19.5038 7.056 19.1038 7.056C18.5278 7.056 17.9598 7.56 17.3998 8.568C16.8558 9.576 16.4638 10.72 16.2238 12ZM30.2108 18.144C29.3628 18.144 28.7468 17.888 28.3628 17.376C27.9788 16.864 27.7868 16.216 27.7868 15.432C27.7868 15.096 27.8268 14.72 27.9068 14.304C27.9868 13.872 28.0668 13.456 28.1468 13.056C28.2428 12.656 28.3068 12.4 28.3388 12.288C28.4668 11.728 28.5868 11.176 28.6988 10.632C28.8108 10.088 28.8668 9.648 28.8668 9.312C28.8668 8.496 28.5788 8.088 28.0028 8.088C27.5868 8.088 27.2188 8.296 26.8988 8.712C26.5788 9.112 26.3228 9.64 26.1308 10.296L24.4988 18H21.0428L23.5868 6H27.0428L26.7788 7.248C27.5788 6.352 28.5148 5.904 29.5868 5.904C30.4028 5.904 31.0508 6.128 31.5308 6.576C32.0108 7.024 32.2508 7.704 32.2508 8.616C32.2508 9.08 32.1948 9.6 32.0828 10.176C31.9708 10.736 31.8108 11.424 31.6028 12.24C31.4748 12.736 31.3548 13.224 31.2428 13.704C31.1468 14.168 31.0988 14.536 31.0988 14.808C31.0988 15.128 31.1708 15.376 31.3148 15.552C31.4588 15.728 31.7068 15.816 32.0588 15.816C32.4428 15.816 32.7068 15.768 32.8508 15.672C32.7548 16.488 32.4588 17.104 31.9628 17.52C31.4828 17.936 30.8988 18.144 30.2108 18.144ZM38.5892 1.704C37.5172 2.136 36.6852 2.8 36.0932 3.696C35.5172 4.576 35.2292 5.656 35.2292 6.936C35.2292 7.528 35.2852 7.944 35.3972 8.184C35.5092 8.408 35.5652 8.536 35.5652 8.568C34.7012 8.568 34.0532 8.392 33.6212 8.04C33.2052 7.672 32.9972 7.072 32.9972 6.24C32.9972 5.216 33.4132 4.224 34.2452 3.264C35.0932 2.288 36.1732 1.504 37.4852 0.912C38.7972 0.303999 40.1092 -1.43051e-06 41.4212 -1.43051e-06C41.6452 -1.43051e-06 41.9652 0.0159988 42.3812 0.0479994L38.5652 18H35.1092L38.5892 1.704ZM50.5172 18.144C49.5412 18.144 48.8212 17.888 48.3572 17.376C47.9092 16.848 47.6852 16.2 47.6852 15.432C47.6852 15.096 47.7252 14.72 47.8052 14.304C47.8852 13.872 47.9652 13.456 48.0452 13.056C48.1412 12.656 48.2052 12.4 48.2372 12.288C48.3652 11.728 48.4852 11.176 48.5972 10.632C48.7092 10.088 48.7652 9.648 48.7652 9.312C48.7652 8.496 48.4772 8.088 47.9012 8.088C47.4852 8.088 47.1172 8.296 46.7972 8.712C46.4772 9.112 46.2212 9.64 46.0292 10.296L44.3972 18H40.9412L43.4852 6H46.9412L46.6772 7.248C47.4772 6.352 48.4132 5.904 49.4852 5.904C50.3012 5.904 50.9492 6.128 51.4292 6.576C51.9092 7.024 52.1492 7.704 52.1492 8.616C52.1492 9.08 52.0932 9.6 51.9812 10.176C51.8692 10.736 51.7092 11.424 51.5012 12.24C51.3732 12.736 51.2532 13.224 51.1412 13.704C51.0452 14.168 50.9972 14.536 50.9972 14.808C50.9972 15.128 51.0692 15.376 51.2132 15.552C51.3572 15.728 51.6052 15.816 51.9572 15.816C52.4372 15.816 52.8212 15.648 53.1092 15.312C53.3972 14.96 53.6852 14.424 53.9732 13.704H54.9812C54.3892 15.464 53.7012 16.648 52.9172 17.256C52.1492 17.848 51.3492 18.144 50.5172 18.144ZM62.2264 18.144C61.3784 18.144 60.7624 17.888 60.3784 17.376C59.9944 16.864 59.8024 16.216 59.8024 15.432C59.8024 15.096 59.8424 14.72 59.9224 14.304C60.0024 13.872 60.0824 13.456 60.1624 13.056C60.2584 12.656 60.3224 12.4 60.3544 12.288C60.4824 11.728 60.6024 11.176 60.7144 10.632C60.8264 10.088 60.8824 9.648 60.8824 9.312C60.8824 8.496 60.5944 8.088 60.0184 8.088C59.6024 8.088 59.2344 8.296 58.9144 8.712C58.5944 9.112 58.3384 9.64 58.1464 10.296L56.5144 18H53.0584L55.6024 6H59.0584L58.7944 7.248C59.5944 6.352 60.5304 5.904 61.6024 5.904C62.4184 5.904 63.0664 6.128 63.5464 6.576C64.0264 7.024 64.2664 7.704 64.2664 8.616C64.2664 9.08 64.2104 9.6 64.0984 10.176C63.9864 10.736 63.8264 11.424 63.6184 12.24C63.4904 12.736 63.3704 13.224 63.2584 13.704C63.1624 14.168 63.1144 14.536 63.1144 14.808C63.1144 15.128 63.1864 15.376 63.3304 15.552C63.4744 15.728 63.7224 15.816 64.0744 15.816C64.4584 15.816 64.7224 15.768 64.8664 15.672C64.7704 16.488 64.4744 17.104 63.9784 17.52C63.4984 17.936 62.9144 18.144 62.2264 18.144Z" fill="#F5E1BF"/>
</svg>
